<svg id="Calque_2" data-name="Calque 2" xmlns="http://www.w3.org/2000/svg" viewBox="0 0 83.91 79.48"><defs><style>.cls-1{fill:#84d469;}.cls-2{fill:#84d46a;}.cls-3{fill:#eaf7e6;}.cls-4{fill:#eaf7e5;}.cls-5{fill:#eef9ea;}.cls-6{fill:#edf8ea;}.cls-7{fill:#f5faf4;}.cls-8{fill:#f6faf5;}.cls-9{fill:#eff7ec;}.cls-10{fill:#eef7eb;}.cls-11{fill:#fafcf9;}.cls-12{fill:#f3f9f2;}.cls-13{fill:#fbfcfb;}.cls-14{fill:#f4f9f2;}.cls-15{fill:#f9fcf9;}.cls-16{fill:#fafcfa;}.cls-17{fill:#f9fcf8;}.cls-18{fill:#edf8e9;}.cls-19{fill:#edf7e9;}.cls-20{fill:#edf6eb;}.cls-21{fill:#ecf7e9;}.cls-22{fill:#fdfefd;}</style></defs><title>building</title><path class="cls-1" d="M581,545.57c0,11.66-.12,23.33.08,35,.06,3.46-.89,5-4.44,4.44a10.16,10.16,0,0,0-3,0c-3.65.55-4.93-.76-4.88-4.6,0-2.13,2.56-6.57-2.58-6.33-4.24.2-2.38,4.19-2.21,6.26.42,5-2.41,4.9-5.82,4.67-3.07-.21-6.51,1.27-6.43-4.5.31-23.32.21-46.65.07-70,0-3.59.78-5.05,4.68-4.86,6.48.32,13,.28,19.49,0,3.79-.16,5.22.82,5.12,4.91-.27,11.66-.1,23.32-.1,35Z" transform="translate(-524.05 -505.64)"/><path class="cls-1" d="M524.15,549.07c0-8.83.2-17.67-.09-26.49-.13-3.88,1.19-4.84,4.84-4.65,5.65.29,11.33.09,17,.07,1.75,0,3.41,0,3.34,2.47,0,1.86.23,3.88-2.61,3.71S544,526,544,527.86s.09,3.41,2.55,3.2c2.3-.2,2.75,1.14,2.75,3.1s-.17,3.73-2.84,3.58-2.45,1.6-2.45,3.34-.22,3.86,2.63,3.69c2.37-.15,2.61,1.34,2.65,3.21s-.52,3.23-2.79,3c-2.52-.23-2.5,1.47-2.5,3.24s-.16,3.83,2.68,3.63c2.4-.18,2.58,1.36,2.61,3.22s-.5,3.25-2.77,3.08C544,564,544,565.69,544,567.46s-.21,3.43,2.61,3.73c5.07.55,2,4.67,2.54,7.13.6,2.75-1.68,2.64-3.57,2.64-5.83,0-11.67-.15-17.49.06-3.06.11-4-.88-4-4C524.26,567.74,524.15,558.4,524.15,549.07Z" transform="translate(-524.05 -505.64)"/><path class="cls-2" d="M599.8,553c-4.37-1.52-8.82-.73-13.22-1-1.36-.09-3.23.6-3.4-1.77-.19-2.69,1.83-2.27,3.42-2.29,3.33,0,6.66,0,10,0,1.21,0,3.18.61,3.29-1.19s-1.9-1.37-3.08-1.4c-3.49-.09-7,0-10.48,0-1.47,0-3.17.19-3.13-2.11s1.81-2,3.23-2a84.44,84.44,0,0,0,13.41-.77c-4.26-1.89-8.66-1-13-1.34-1.48-.11-3.64.73-3.66-2s2.06-2,3.6-2.15c4.29-.33,8.69.67,12.89-1.07-4.28-1.49-8.68-.76-13-.93-1.95-.07-3.6,0-3.61-2.78,0-2.61,1.3-3.11,3.43-2.93.17,0,.33,0,.5,0,5.46.23,12.44-2.21,16,.86s1.05,10.33,1.17,15.73c.23,10,0,20,.1,30,0,1.8-.86,4.25,2.39,4.45,1.37.09,1.4,1.22,1.28,2.24-.16,1.32-1.23,1.42-2.24,1.42q-10,0-20,0c-1.23,0-2.49-.18-2.52-1.73-.06-3.82-.16-7.66.08-11.47.14-2.24,2.22-1.47,3.57-1.56,4.31-.31,8.71.56,13-1-4.19-1.82-8.59-.78-12.87-1.13-1.51-.12-3.68.65-3.71-2s2.17-2,3.66-2c3.49-.09,7,0,10.48-.06,1.07,0,2.66.27,2.52-1.48-.1-1.28-1.47-1.08-2.42-1.09-3.33,0-6.66.1-10-.08-1.57-.08-4.17,1.11-4.25-1.87-.09-3.44,2.79-2,4.47-2.15C591.72,553.67,595.83,554.56,599.8,553Z" transform="translate(-524.05 -505.64)"/><path class="cls-3" d="M567.05,545c.23-2-.63-4.79,2.4-4.62,3.66.2,2.16,3.44,2.31,5.48.13,1.81.73,4.46-2.56,4.11C565.66,549.6,567.71,546.61,567.05,545Z" transform="translate(-524.05 -505.64)"/><path class="cls-4" d="M571.88,518.11c-.38,1.87.86,4.86-2.61,4.74s-2-3.16-2.1-5-.89-4.5,2.13-4.58C572.74,513.22,571.53,516.19,571.88,518.11Z" transform="translate(-524.05 -505.64)"/><path class="cls-5" d="M567.05,558.51c.45-1.72-1-4.45,2.37-4.48s2.35,2.65,2.32,4.38,1.18,4.88-2.51,4.71C565.94,563,567.58,560.15,567.05,558.51Z" transform="translate(-524.05 -505.64)"/><path class="cls-6" d="M567,531.59c.43-2-.83-4.82,2.56-4.48s2,3.21,2.19,5.1c.13,1.67.62,4-2.27,4C565.76,536.1,567.78,533,567,531.59Z" transform="translate(-524.05 -505.64)"/><path class="cls-7" d="M573.69,518.16c.67-1.94-1-4.93,2.35-4.79s1.81,3.07,1.8,4.69,1.49,4.6-1.77,4.71C572.19,522.89,574.87,519.41,573.69,518.16Z" transform="translate(-524.05 -505.64)"/><path class="cls-8" d="M559.12,518.35c-.64,1.62,1.16,4.74-2.29,4.4s-1.63-3.39-1.79-5.22c-.13-1.51-1.09-4.24,1.87-4.15C560.58,513.5,558.33,516.69,559.12,518.35Z" transform="translate(-524.05 -505.64)"/><path class="cls-9" d="M565.33,545.36c-.69,1.66,1.17,4.68-2.24,4.52-3.17-.14-1.81-3-1.88-4.67s-1-4.67,1.92-4.72C566.77,540.44,564.48,543.77,565.33,545.36Z" transform="translate(-524.05 -505.64)"/><path class="cls-10" d="M565.32,518.25c-.62,1.71,1.08,4.68-2.25,4.54-3.17-.13-1.79-3-1.86-4.65s-1-4.66,1.92-4.71C566.75,513.36,564.49,516.68,565.32,518.25Z" transform="translate(-524.05 -505.64)"/><path class="cls-11" d="M578,545.26c-.76,1.47,1.33,4.46-1.93,4.59-3.74.14-2-3.09-2.09-4.8s-1.43-4.57,1.89-4.51C579,540.59,577.53,543.47,578,545.26Z" transform="translate(-524.05 -505.64)"/><path class="cls-12" d="M565.28,531.6c-.62,1.59,1.15,4.6-2.2,4.42-3.07-.16-1.79-3-1.84-4.68,0-1.54-1-4.11,1.84-4.17C566.45,527.1,564.65,530,565.28,531.6Z" transform="translate(-524.05 -505.64)"/><path class="cls-13" d="M559.09,558.44c-.7,1.56,1.29,4.52-2.06,4.58s-1.95-2.88-2-4.5-1.33-4.52,2.13-4.36C560.2,554.29,558.48,556.94,559.09,558.44Z" transform="translate(-524.05 -505.64)"/><path class="cls-14" d="M561,558.48c.51-1.86-.76-4.59,2.23-4.31,3.43.31,1.64,3.31,1.86,5.1.17,1.39.86,3.79-1.72,3.77C559.69,563,562,559.76,561,558.48Z" transform="translate(-524.05 -505.64)"/><path class="cls-15" d="M573.79,558.26c.5-1.64-.9-4.31,2.2-4.12,3.29.21,1.78,3,1.86,4.64S579,563,576.07,563C572.31,563,574.6,559.79,573.79,558.26Z" transform="translate(-524.05 -505.64)"/><path class="cls-13" d="M559.09,545.3c-.69,1.56,1.26,4.45-2,4.57s-2-2.8-2-4.39-1.36-4.47,1.84-4.59C560.29,540.74,558.44,543.73,559.09,545.3Z" transform="translate(-524.05 -505.64)"/><path class="cls-16" d="M559.09,531.54c-.68,1.55,1.26,4.54-2.13,4.49s-1.85-2.93-1.91-4.57-1.2-4.1,1.72-4.27C560.25,527,558.49,529.93,559.09,531.54Z" transform="translate(-524.05 -505.64)"/><path class="cls-17" d="M573.8,531.6c.64-1.58-1.2-4.51,2.24-4.42,3,.08,1.88,2.67,1.82,4.18s1.35,4.51-1.84,4.66C572.61,536.18,574.44,533.17,573.8,531.6Z" transform="translate(-524.05 -505.64)"/><path class="cls-18" d="M536.21,541c.4,2.65-.48,4-3.47,3.92s-3.71-1.29-3.69-4c0-2.43.7-3.75,3.37-3.73S536.67,538,536.21,541Z" transform="translate(-524.05 -505.64)"/><path class="cls-19" d="M536.21,567.53c.34,2.46-.43,3.72-3.19,3.68-2.54,0-4.11-.38-4-3.5.1-2.37.5-3.74,3.3-3.68C534.87,564.09,536.72,564.4,536.21,567.53Z" transform="translate(-524.05 -505.64)"/><path class="cls-20" d="M536.21,554.57c.53,3.2-1.45,3.34-3.9,3.42-2.84.09-3.14-1.36-3.26-3.68-.16-3.18,1.54-3.37,4-3.42C535.86,550.83,536.54,552.15,536.21,554.57Z" transform="translate(-524.05 -505.64)"/><path class="cls-21" d="M536.18,527.29c.39,2.71-.41,3.93-3.15,3.89-2.51,0-4.12-.36-4-3.48.1-2.37.5-3.77,3.3-3.64C534.76,524.17,536.89,524.19,536.18,527.29Z" transform="translate(-524.05 -505.64)"/><path class="cls-22" d="M590.66,578c-2.21.22-3.84.06-3.84-2.93,0-2.81,1.28-3.28,3.63-3.23,2.17,0,3.81.09,3.82,3.06S593,578.29,590.66,578Z" transform="translate(-524.05 -505.64)"/></svg>