<svg id="Calque_2" data-name="Calque 2" xmlns="http://www.w3.org/2000/svg" viewBox="0 0 91.46 58.08"><defs><style>.cls-1{fill:#84d469;}.cls-2{fill:#fefefd;}.cls-3{fill:#f9fcf8;}.cls-4{fill:#f5faf3;}.cls-5{fill:#f1f8ee;}.cls-6{fill:#eff7ec;}.cls-7{fill:#dff2d8;}.cls-8{fill:#dcf0d5;}</style></defs><title>hands</title><path class="cls-1" d="M584.75,554.39c2.36,2.22,4.66,4.5,7.09,6.63,2,1.79,3,3.51.59,5.72-2.23,2-4.46,3-6.94.39L576,557.28l-1.33,1.29a81.92,81.92,0,0,1,6.35,5.9c1,1.17,4.32,2.06,1.63,4.54-2,1.87-4.39,2.38-6.7.32-1.45-1.3-2.85-2.66-4.33-4.06-.94,1.87,2.88,3.07.68,4.34s-5.09.82-7.23-.27-4-2.68-6.7-2.32c-1.39.18-2.51-1-3-2.29-1.54-3.93-4.8-6.8-6.62-10.34-2-3.85-3.48-7.82-6.55-11.06-1-1,.52-2.44,1.25-3.51,2.45-3.56,5.45-6.86,7.32-10.7,3.28-6.73,9-7.09,14.72-5.69,3.61.88,6.37.24,9.46-1,10.55-4.18,19.36-.74,24.48,9.47.75,1.49,1.5,3,2.24,4.46,3.83,7.68,3.87,7.72-1.88,14-1.2,1.31-1.65,2.11-.23,3.65,2.51,2.71,2,5.51-.73,7.8-3.13,2.61-4.74-.3-6.58-2-2.05-1.94-4-4-6.08-5.93-.15-.15-.49-.1-.75-.15Z" transform="translate(-528.15 -512.56)"/><path class="cls-1" d="M606,514.19c1.48,0,1.75,1.31,2.25,2.3,3.57,7.12,7.07,14.28,10.72,21.36,1.06,2,.85,3-1.3,4.22-7.36,4.09-8.84,3.76-12.57-3.71-2.15-4.3-4.3-8.61-6.4-12.95A7.86,7.86,0,0,1,606,514.19Z" transform="translate(-528.15 -512.56)"/><path class="cls-1" d="M553.31,521.5a14.7,14.7,0,0,1-1.65,2.67c-3.44,4.88-6.84,9.78-10.26,14.67-1.28,1.83-2.74,3.65-5.23,3-3.1-.83-5.47-3-7.76-5.15-.71-.66.22-1.52.66-2.16,4.75-6.79,9.57-13.54,14.24-20.38,1.43-2.1,2.68-1.92,4.35-.43C549.8,515.6,553.21,516.37,553.31,521.5Z" transform="translate(-528.15 -512.56)"/><path class="cls-2" d="M582,521.68c5.45,2.77,12.72,2,15.25,9.63,1.19,3.6,3.24,6.93,5.08,10.29,1.08,2,.65,3.25-.86,4.79-4.66,4.76-4.63,4.85-9.43,0s-9.77-10-14.54-15.08c-.75-.8-1.3-1.43-2.41-1.25-1.36.21-1.23,1.39-1.41,2.31-.86,4.33-2.27,8.39-5.9,11.23-1.33,1-2.94,2-4.57,1-2.1-1.38-.33-3,.22-4.37,1.12-2.77,2.81-5.36,3.61-8.21C569.18,524.25,576.43,524.55,582,521.68Z" transform="translate(-528.15 -512.56)"/><path class="cls-3" d="M564.82,560c-1.37,2.36-2.75,4.64-5.67,5.09A1.74,1.74,0,0,1,557,563a6.55,6.55,0,0,1,4.84-5.11C563.43,557.39,564.25,558.57,564.82,560Z" transform="translate(-528.15 -512.56)"/><path class="cls-4" d="M555.73,559.51c-1.51-.19-2.71-1-2.48-2.5a4.54,4.54,0,0,1,3.88-3.9,2,2,0,0,1,2.43,2.33A5,5,0,0,1,555.73,559.51Z" transform="translate(-528.15 -512.56)"/><path class="cls-5" d="M551,549.07c1.78.1,2.79.94,2.84,2.38a2.29,2.29,0,0,1-2.43,2.46,2.24,2.24,0,0,1-2.3-2.08C548.92,550.22,550.05,549.58,551,549.07Z" transform="translate(-528.15 -512.56)"/><path class="cls-6" d="M566.39,563.07a2.33,2.33,0,0,1,2.52,2.4,2.19,2.19,0,0,1-2,2.36,2.25,2.25,0,0,1-2.73-2.1C564,564.19,565,563.43,566.39,563.07Z" transform="translate(-528.15 -512.56)"/><path class="cls-7" d="M613.37,540.66c-1.22-.07-1.85-.65-1.92-1.48a1.67,1.67,0,1,1,3.31-.48C615,539.9,614,540.29,613.37,540.66Z" transform="translate(-528.15 -512.56)"/><path class="cls-8" d="M535.23,537.63a1.66,1.66,0,0,1-1.81-1.27,1.64,1.64,0,0,1,1.43-2.09,1.58,1.58,0,0,1,1.81,1.25C537,536.69,536.2,537.25,535.23,537.63Z" transform="translate(-528.15 -512.56)"/></svg>