<svg id="Calque_2" data-name="Calque 2" xmlns="http://www.w3.org/2000/svg" viewBox="0 0 86.6 65"><defs><style>.cls-1{fill:#84d469;}</style></defs><title>hat</title><path class="cls-1" d="M553.62,534.06l20.1-8.82c1.62-.71,4.16-1.11,3-3.54s-3.19-.65-4.71,0q-10.8,4.57-21.52,9.32c-6,2.66-8.7,9.1-6,15.06,1.65,3.64-1.77,6.45-.87,10.09a22.15,22.15,0,0,1-.7,11.35,10.71,10.71,0,0,1-3.71,5.77c-2.65,2-4.67.22-6.73-1.17-2.62-1.77-.32-3.14.5-4.48a35.84,35.84,0,0,0,5.11-11.84c.32-1.61.92-3.18-.59-4.63a2.86,2.86,0,0,1-.69-3.26c3-4.55,1.7-10.49,4.83-14.89,1.61-2.26.84-3-1.31-3.8-2.54-1-7-1-7-3.65-.07-3.4,4.54-3.08,7.12-4.08,10.38-4,20.93-7.65,31.37-11.54a9.49,9.49,0,0,1,7.19-.08c11.82,4.48,23.7,8.78,35.56,13.16,1.35.5,3.33.67,3.32,2.49s-2,2-3.34,2.47q-17.78,6.58-35.56,13.12c-1.4.52-2.78,1.23-4.33.67C568.15,539.4,561.64,537,553.62,534.06Z" transform="translate(-531.31 -509.2)"/><path class="cls-1" d="M603.11,546.29c0,9-.15,9.47-8.61,12.79-13.84,5.44-27.59,5.43-41.11-1.23-2.47-1.22-4.21-2.45-2.68-5.74,1.1-2.37.15-4.8-1-7.15-1-2-1.28-4.7,0-6.19,1.09-1.26,3.29.53,5,1.07a24.32,24.32,0,0,1,4.22,1.53c11.34,6.19,22.63,6.57,33.92-.1a13.62,13.62,0,0,1,2.35-.83C603.11,537.56,603.11,537.56,603.11,546.29Z" transform="translate(-531.31 -509.2)"/></svg>