<svg id="Calque_1" data-name="Calque 1" xmlns="http://www.w3.org/2000/svg" viewBox="0 0 127.72 127.1"><defs><style>.cls-1{fill:#fff;}</style></defs><title>user_white</title><path class="cls-1" d="M500,436.91c-33.45-1.19-63.69,26.6-63.78,62.95C436.17,537,465,563.73,499.55,564A63.65,63.65,0,0,0,564,500.36C564,465.82,534.67,435.57,500,436.91ZM499.82,560c-33.34-.9-59.25-26.27-59.3-60,0-34,29-59.43,60.08-59.17,30.56.26,59.28,25.22,59.06,59.68C559.44,533.7,533.72,559.37,499.82,560Z" transform="translate(-436.26 -436.86)"/><path class="cls-1" d="M526.53,522.94c-18.77-18-52.75-10.84-62.81,13.15-1.28,3-.87,4.83,1.56,6.77,10.09,8.06,21.48,12.31,34.43,12.22,14.47,0,26.93-4.65,36.09-13.1,1.66-1.53,1.91-2.71,1.17-4.66C534.79,531.56,530.89,527.12,526.53,522.94Z" transform="translate(-436.26 -436.86)"/><path class="cls-1" d="M500.15,509.09c10.94,1.2,22.61-9.28,22.75-22.19C523,474.56,512.29,464,500,464s-23,10.79-22.89,23C477.17,499.06,487.66,509.09,500.15,509.09Z" transform="translate(-436.26 -436.86)"/></svg>